<?xml version="1.0" encoding="UTF-8" standalone="no"?>
<!-- Created with Inkscape (http://www.inkscape.org/) -->

<svg
   xmlns:dc="http://purl.org/dc/elements/1.1/"
   xmlns:cc="http://creativecommons.org/ns#"
   xmlns:rdf="http://www.w3.org/1999/02/22-rdf-syntax-ns#"
   xmlns:svg="http://www.w3.org/2000/svg"
   xmlns="http://www.w3.org/2000/svg"
   xmlns:sodipodi="http://sodipodi.sourceforge.net/DTD/sodipodi-0.dtd"
   xmlns:inkscape="http://www.inkscape.org/namespaces/inkscape"
   width="32px"
   height="32px"
   id="svg2985"
   version="1.1"
   inkscape:version="0.92.5 (2060ec1f9f, 2020-04-08)"
   inkscape:export-filename="C:\Users\Edgar\Documents\spc projects\mcontrols\src\main\resources\icons\cash_register.png"
   inkscape:export-xdpi="90"
   inkscape:export-ydpi="90"
   sodipodi:docname="cash.svg">
  <defs
     id="defs2987" />
  <sodipodi:namedview
     id="base"
     pagecolor="#ffffff"
     bordercolor="#666666"
     borderopacity="1.0"
     inkscape:pageopacity="0.0"
     inkscape:pageshadow="2"
     inkscape:zoom="15.836083"
     inkscape:cx="5.9003075"
     inkscape:cy="16.918441"
     inkscape:current-layer="g5540"
     showgrid="true"
     inkscape:grid-bbox="true"
     inkscape:document-units="px"
     inkscape:window-width="1920"
     inkscape:window-height="1004"
     inkscape:window-x="1366"
     inkscape:window-y="0"
     inkscape:window-maximized="1" />
  <metadata
     id="metadata2990">
    <rdf:RDF>
      <cc:Work
         rdf:about="">
        <dc:format>image/svg+xml</dc:format>
        <dc:type
           rdf:resource="http://purl.org/dc/dcmitype/StillImage" />
        <dc:title />
      </cc:Work>
    </rdf:RDF>
  </metadata>
  <g
     id="layer1"
     inkscape:label="Layer 1"
     inkscape:groupmode="layer">
    <g
       id="g4294"
       transform="matrix(0.22741932,0,0,0.22741932,-8.3277828,-0.27820402)">
      <g
         id="g5540"
         transform="matrix(0.63170403,0,0,0.63170403,40.416779,0.97315138)"
         style="fill:#d2d2d2;fill-opacity:1">
        <rect
           style="fill:#ffffff;fill-opacity:1;stroke:none"
           id="rect6394"
           width="20.219278"
           height="39.999348"
           x="169.51332"
           y="97.580734"
           ry="0" />
        <rect
           style="fill:none;stroke:#ffffff;stroke-width:13.92159462;stroke-linecap:butt;stroke-linejoin:miter;stroke-miterlimit:4;stroke-opacity:1;stroke-dasharray:none;stroke-dashoffset:0"
           id="rect6394-9"
           width="44.834236"
           height="21.977636"
           x="156.76637"
           y="81.681114"
           ry="4.3955293" />
        <path
           style="fill:#ffffff;stroke:#fffffb;stroke-width:13.92159462;stroke-miterlimit:4;stroke-opacity:1;fill-opacity:1"
           d="m 8.7791415,137.87175 c -2.7699999,0 -5.0030732,2.23308 -5.0030732,5.00308 l 0,58.29667 c 0,2.77 2.2330733,5.00308 5.0030732,5.00308 l 190.9868785,0 c 2.77,0 5.00307,-2.23308 5.00307,-5.00308 l 0,-58.29667 c 0,-2.77 -2.23307,-5.00308 -5.00307,-5.00308 l -190.9868785,0 z m 95.4934385,1.08763 c 9.2248,0 16.74942,7.52461 16.74942,16.74942 0,9.22483 -7.52462,16.74941 -16.74942,16.74941 -9.224831,0 -16.749418,-7.52458 -16.749418,-16.74941 0,-9.22481 7.524587,-16.74942 16.749418,-16.74942 z"
           id="rect6270"
           inkscape:connector-curvature="0" />
        <rect
           style="fill:none;stroke:#ffffff;stroke-width:13.92159462;stroke-miterlimit:4;stroke-opacity:1;stroke-dasharray:none"
           id="rect6270-3"
           width="121.85082"
           height="91.080544"
           x="11.934153"
           y="17.209892"
           ry="5" />
        <path
           id="path5598"
           d="m 89.728544,68.453927 c -0.32035,-1.085108 -0.70887,-2.029351 -1.16554,-2.831369 -0.45622,-0.802471 -1.10964,-1.585405 -1.96164,-2.351069 -0.8511,-0.765668 -1.61676,-1.381833 -2.29564,-1.850776 -0.67842,-0.46894 -1.6104,-0.993318 -2.79502,-1.573588 -1.18416,-0.58027 -2.12205,-1.01195 -2.81274,-1.295951 -0.6916,-0.283549 -1.69129,-0.672515 -2.9995,-1.165992 -1.16009,-0.44395 -2.02344,-0.783386 -2.5919,-1.017859 -0.56755,-0.23447 -1.31413,-0.567546 -2.23974,-0.999682 -0.92516,-0.431682 -1.6163,-0.814284 -2.07298,-1.147359 -0.45667,-0.333076 -0.943788,-0.740219 -1.46226,-1.221432 -0.51847,-0.481208 -0.882443,-0.993319 -1.092379,-1.53633 -0.209477,-0.543008 -0.314442,-1.135546 -0.314442,-1.77716 0,-1.678102 0.740215,-3.048121 2.221111,-4.109147 1.48089,-1.061026 3.39391,-1.591765 5.73862,-1.591765 1.03603,0 2.09206,0.141773 3.16535,0.425773 1.0733,0.284 1.99256,0.604355 2.75731,0.962423 0.76612,0.358066 1.48771,0.752941 2.16659,1.184622 0.67887,0.432137 1.16008,0.758848 1.44408,0.98105 0.284,0.222204 0.46349,0.370337 0.5371,0.444404 0.32126,0.246739 0.65343,0.333076 0.99923,0.259008 0.36988,-0.02452 0.65388,-0.222201 0.852,-0.592083 l 2.99905,-5.405098 c 0.29627,-0.493477 0.23446,-0.96242 -0.18494,-1.406822 -0.14859,-0.148136 -0.33309,-0.320807 -0.55619,-0.518473 -0.22175,-0.197664 -0.70296,-0.555278 -1.44409,-1.073747 -0.74022,-0.518018 -1.52406,-0.981053 -2.35016,-1.388193 -0.827,-0.407144 -1.90121,-0.820648 -3.2217,-1.240061 -1.31958,-0.419868 -2.68369,-0.703413 -4.09097,-0.851549 v -6.516106 c 0,-0.345345 -0.11088,-0.629345 -0.33217,-0.851546 -0.2222,-0.221746 -0.5062,-0.333075 -0.852,-0.333075 h -4.99841 c -0.3208,0 -0.59844,0.117235 -0.83291,0.351704 -0.23447,0.234474 -0.35171,0.51211 -0.35171,0.832917 v 6.663787 c -3.875127,0.740219 -7.021851,2.393783 -9.440627,4.960693 -2.418318,2.566909 -3.627936,5.552775 -3.627936,8.958965 0,1.011951 0.104967,1.974371 0.314902,2.887262 0.209477,0.913345 0.46894,1.733993 0.777477,2.461943 0.308539,0.728406 0.746584,1.444084 1.314129,2.147497 0.567546,0.703413 1.104648,1.30822 1.610395,1.81397 0.506204,0.505746 1.166446,1.030124 1.980734,1.573135 0.814739,0.543463 1.511792,0.981505 2.092061,1.31458 0.58027,0.332169 1.351386,0.715682 2.313807,1.146908 0.962424,0.432134 1.721718,0.758849 2.276998,0.981505 0.55528,0.221748 1.31413,0.530738 2.277,0.924706 1.33276,0.51847 2.31972,0.919254 2.96179,1.203254 0.64206,0.284 1.45635,0.678875 2.44377,1.184621 0.98741,0.50575 1.709,0.968329 2.16613,1.388194 0.45622,0.419867 0.86972,0.937882 1.24005,1.554962 0.37034,0.617075 0.55574,1.270958 0.55574,1.962102 0,1.949829 -0.75885,3.455261 -2.27701,4.515832 -1.51769,1.061481 -3.27668,1.59222 -5.27559,1.59222 -0.91244,0 -1.82624,-0.09815 -2.73912,-0.295814 -3.208528,-0.642524 -6.207118,-2.184759 -8.996228,-4.628072 l -0.07407,-0.07407 c -0.222201,-0.270821 -0.51847,-0.38215 -0.888355,-0.33262 -0.394872,0.04953 -0.678872,0.197664 -0.851546,0.444857 l -3.813329,4.9975 c -0.370338,0.49348 -0.345345,0.999226 0.07407,1.5177 0.123596,0.148132 0.339436,0.370789 0.647974,0.666606 0.308993,0.296721 0.882903,0.758849 1.721724,1.3891 0.838825,0.6298 1.75217,1.221431 2.739583,1.777163 0.987413,0.555277 2.239742,1.104193 3.757895,1.647207 1.518152,0.54255 3.091292,0.92516 4.720312,1.1469 v 6.47885 c 0,0.32125 0.11724,0.59844 0.3517,0.83336 0.23447,0.23448 0.51211,0.35126 0.83293,0.35126 h 4.9984 c 0.3458,0 0.6298,-0.11087 0.85201,-0.33262 0.22174,-0.2222 0.33216,-0.50576 0.33216,-0.852 v -6.47885 c 3.92511,-0.64161 7.11501,-2.326074 9.57059,-5.053388 2.45558,-2.727311 3.68337,-5.979004 3.68337,-9.755072 -8.6e-4,-1.233245 -0.16131,-2.393328 -0.4853,-3.479803 z"
           inkscape:connector-curvature="0"
           style="fill:#ffffff;fill-opacity:1;stroke:#ffffff;stroke-width:5.87491322;stroke-linejoin:bevel;stroke-miterlimit:4;stroke-opacity:1;stroke-dasharray:none" />
      </g>
    </g>
  </g>
</svg>
