<?xml version="1.0" encoding="UTF-8" standalone="no"?>
<!-- Created with Inkscape (http://www.inkscape.org/) -->

<svg
   xmlns:dc="http://purl.org/dc/elements/1.1/"
   xmlns:cc="http://creativecommons.org/ns#"
   xmlns:rdf="http://www.w3.org/1999/02/22-rdf-syntax-ns#"
   xmlns:svg="http://www.w3.org/2000/svg"
   xmlns="http://www.w3.org/2000/svg"
   xmlns:sodipodi="http://sodipodi.sourceforge.net/DTD/sodipodi-0.dtd"
   xmlns:inkscape="http://www.inkscape.org/namespaces/inkscape"
   width="96"
   height="96"
   viewBox="0 0 25.400001 25.400001"
   version="1.1"
   id="svg858"
   inkscape:version="0.92.5 (2060ec1f9f, 2020-04-08)"
   sodipodi:docname="logo.svg">
  <defs
     id="defs852" />
  <sodipodi:namedview
     id="base"
     pagecolor="#000000"
     bordercolor="#666666"
     borderopacity="1.0"
     inkscape:pageopacity="0"
     inkscape:pageshadow="2"
     inkscape:zoom="2.8284271"
     inkscape:cx="65.873666"
     inkscape:cy="40.123849"
     inkscape:document-units="mm"
     inkscape:current-layer="layer1"
     showgrid="false"
     units="px"
     inkscape:window-width="1920"
     inkscape:window-height="1004"
     inkscape:window-x="1366"
     inkscape:window-y="0"
     inkscape:window-maximized="1"
     inkscape:pagecheckerboard="false"
     showguides="false"
     inkscape:guide-bbox="true">
    <sodipodi:guide
       position="12.700591,12.700591"
       orientation="-0.70710678,0.70710678"
       id="guide1416"
       inkscape:locked="false" />
    <sodipodi:guide
       position="0.36616445,25.035018"
       orientation="0.70710678,0.70710678"
       id="guide1418"
       inkscape:locked="false" />
    <sodipodi:guide
       position="12.700591,12.700591"
       orientation="0,1"
       id="guide1420"
       inkscape:locked="false" />
    <sodipodi:guide
       position="12.700591,12.700591"
       orientation="1,0"
       id="guide1422"
       inkscape:locked="false" />
  </sodipodi:namedview>
  <metadata
     id="metadata855">
    <rdf:RDF>
      <cc:Work
         rdf:about="">
        <dc:format>image/svg+xml</dc:format>
        <dc:type
           rdf:resource="http://purl.org/dc/dcmitype/StillImage" />
        <dc:title />
      </cc:Work>
    </rdf:RDF>
  </metadata>
  <g
     inkscape:label="Capa 1"
     inkscape:groupmode="layer"
     id="layer1"
     transform="translate(0,-271.59998)">
    <rect
       style="fill:#ffffff;fill-opacity:1;stroke:none;stroke-width:0.1179611"
       id="rect6394"
       width="2.3850882"
       height="4.7183671"
       x="20.388288"
       y="281.9086"
       ry="0" />
    <rect
       style="fill:none;fill-opacity:1;stroke:#ffffff;stroke-width:1.64220655;stroke-linecap:butt;stroke-linejoin:miter;stroke-miterlimit:4;stroke-dasharray:none;stroke-dashoffset:0;stroke-opacity:1"
       id="rect6394-9"
       width="5.2886963"
       height="2.5925062"
       x="18.884651"
       y="280.03311"
       ry="0.51850146" />
    <path
       style="fill:#ffffff;fill-opacity:1;stroke:#fffffb;stroke-width:1.64220655;stroke-miterlimit:4;stroke-opacity:1"
       d="m 1.4279085,286.66125 c -0.3267521,0 -0.59017033,0.26347 -0.59017033,0.59016 v 6.87673 c 0,0.32675 0.26341513,0.59017 0.59017033,0.59017 H 23.95693 c 0.326752,0 0.590167,-0.26348 0.590167,-0.59017 v -6.87673 c 0,-0.32675 -0.263415,-0.59016 -0.590167,-0.59016 z m 11.2645085,0.12816 c 1.088167,0 1.975781,0.88763 1.975781,1.9758 0,1.08817 -0.887614,1.97577 -1.975781,1.97577 -1.08817,0 -1.975778,-0.8876 -1.975778,-1.97577 0,-1.08817 0.887608,-1.9758 1.975778,-1.9758 z"
       id="rect6270"
       inkscape:connector-curvature="0" />
    <rect
       style="fill:none;fill-opacity:1;stroke:#ffffff;stroke-width:1.64220655;stroke-miterlimit:4;stroke-dasharray:none;stroke-opacity:1"
       id="rect6270-3"
       width="14.373658"
       height="10.74396"
       x="1.8000789"
       y="272.42798"
       ry="0.58980554" />
    <path
       id="path5598"
       d="m 10.976787,278.47263 c -0.0378,-0.12786 -0.08364,-0.23928 -0.13748,-0.33399 -0.05381,-0.0946 -0.130901,-0.18714 -0.231388,-0.27744 -0.100393,-0.0903 -0.190703,-0.16293 -0.270801,-0.21848 -0.08004,-0.0553 -0.189958,-0.11731 -0.329704,-0.18559 -0.139683,-0.0686 -0.2503186,-0.11948 -0.3317917,-0.15299 -0.081588,-0.0336 -0.1995165,-0.0795 -0.353826,-0.13748 -0.1368592,-0.0524 -0.2386812,-0.0925 -0.3057453,-0.1201 -0.06694,-0.0279 -0.155014,-0.067 -0.2641909,-0.11793 -0.1091461,-0.0509 -0.1906719,-0.096 -0.2445155,-0.13531 -0.053874,-0.0394 -0.1113184,-0.0872 -0.1724861,-0.14399 -0.061167,-0.0568 -0.1040874,-0.11731 -0.1288524,-0.18124 -0.024827,-0.0639 -0.037085,-0.13407 -0.037085,-0.20948 0,-0.198 0.087329,-0.35956 0.2620187,-0.48472 0.1746894,-0.12507 0.4003487,-0.18776 0.6769346,-0.18776 0.1222112,0 0.246781,0.0155 0.3733866,0.0502 0.126618,0.0335 0.2350502,0.0713 0.3252562,0.11358 0.090371,0.0422 0.1754964,0.0887 0.2555628,0.13964 0.08007,0.0509 0.136828,0.0894 0.170345,0.11577 0.03351,0.0248 0.05468,0.0437 0.06334,0.0524 0.0379,0.0279 0.07709,0.0394 0.117867,0.031 0.04363,-0.003 0.07711,-0.0248 0.100518,-0.0698 l 0.353773,-0.63759 c 0.03494,-0.0584 0.02762,-0.11358 -0.02172,-0.16604 -0.01769,-0.0186 -0.03929,-0.0379 -0.0656,-0.0611 -0.02607,-0.0248 -0.08292,-0.0655 -0.170344,-0.12661 -0.08733,-0.0612 -0.17978,-0.11577 -0.277226,-0.16387 -0.09754,-0.0481 -0.224282,-0.0968 -0.3800364,-0.14616 -0.1556657,-0.0496 -0.3165698,-0.0829 -0.482576,-0.10056 v -0.76864 c 0,-0.0407 -0.013034,-0.0741 -0.039196,-0.10054 -0.026068,-0.0248 -0.059709,-0.0394 -0.1005186,-0.0394 H 8.7410789 c -0.037862,0 -0.070602,0.0125 -0.098253,0.0416 -0.02762,0.0279 -0.041492,0.0605 -0.041492,0.0984 v 0.78605 c -0.4571128,0.0872 -0.8283021,0.28242 -1.1136241,0.58518 -0.2852629,0.30289 -0.4279564,0.655 -0.4279564,1.05683 0,0.11948 0.012413,0.23275 0.037147,0.34056 0.024827,0.10769 0.055333,0.20451 0.091705,0.29048 0.036403,0.086 0.088074,0.17037 0.155014,0.25324 0.06694,0.0829 0.130311,0.15423 0.189958,0.21381 0.059709,0.0596 0.137604,0.12166 0.2336537,0.18559 0.096112,0.0642 0.1783204,0.11575 0.2467809,0.15516 0.068461,0.0391 0.1594208,0.0844 0.2729426,0.13532 0.1135218,0.0509 0.2030854,0.0894 0.2685978,0.11575 0.065512,0.0248 0.1550139,0.0627 0.2685978,0.10894 0.1572173,0.0612 0.2736252,0.10829 0.3493787,0.14182 0.075722,0.0335 0.1718034,0.0801 0.2882733,0.13964 0.11647,0.0596 0.2015957,0.11421 0.2555326,0.16387 0.053812,0.0496 0.1025978,0.11048 0.1462624,0.18341 0.043696,0.0729 0.065543,0.14989 0.065543,0.23151 0,0.22996 -0.089502,0.40756 -0.2685978,0.53269 -0.1790341,0.12507 -0.38652,0.18776 -0.6223151,0.18776 -0.1076253,0 -0.2154368,-0.0125 -0.3231087,-0.0351 -0.3784854,-0.0758 -0.7322028,-0.25758 -1.061208,-0.54591 l -0.00869,-0.009 c -0.026068,-0.0319 -0.061168,-0.045 -0.1048012,-0.0391 -0.046582,0.006 -0.080067,0.0248 -0.1004564,0.0524 l -0.4498259,0.58952 c -0.043696,0.0584 -0.040748,0.11793 0.00869,0.17906 0.014586,0.0186 0.040034,0.0438 0.076437,0.0786 0.036465,0.0351 0.1041496,0.0897 0.2030854,0.16386 0.098935,0.0741 0.2066853,0.14399 0.3231646,0.20948 0.11647,0.0655 0.2641909,0.13034 0.4432872,0.19427 0.1790962,0.0639 0.3646505,0.10924 0.556812,0.13531 v 0.76427 c 0,0.0379 0.013965,0.0704 0.041492,0.0983 0.02762,0.0279 0.060423,0.0416 0.098253,0.0416 H 9.330976 c 0.040778,0 0.074295,-0.0124 0.1005187,-0.0391 0.026068,-0.0248 0.039196,-0.0596 0.039196,-0.10056 v -0.76423 c 0.4630091,-0.0757 0.8392943,-0.27434 1.1289583,-0.5961 0.289669,-0.32173 0.434492,-0.70531 0.434492,-1.15073 -10e-5,-0.14555 -0.01893,-0.28241 -0.05725,-0.41049 z"
       inkscape:connector-curvature="0"
       style="fill:#ffffff;fill-opacity:1;stroke:#ffffff;stroke-width:0.69301122;stroke-linejoin:bevel;stroke-miterlimit:4;stroke-dasharray:none;stroke-opacity:1" />
  </g>
</svg>
